<svg id="Layer_1" version="1.1" viewBox="0 0 512 512" xml:space="preserve" xmlns="http://www.w3.org/2000/svg">
    <style>
        .st0{fill:#1b3954}.st1{fill:#16ade1}
    </style>
    <path class="st0" d="M458.7 67.1c-14.2-14.2-32.8-21.3-51.4-21.3s-37.2 7.1-51.4 21.3L286 136.9c18.6 5.3 42.6 24.3 60.6 42.3 10.2 10.2 36 37.7 42.3 60.6l69.8-69.8c28.4-28.4 28.4-74.5 0-102.9zm-93.3 39.6L327 145.1c-1.4 1.4-3.2 2.1-4.9 2.1-1.8 0-3.6-.7-5-2.1-2.7-2.7-2.7-7.2 0-9.9l38.4-38.4c2.7-2.7 7.2-2.7 9.9 0s2.7 7.2 0 9.9zm11.4-13.1c-.4.1-.9.1-1.4.1-1.8 0-3.6-.8-5-2.1-.3-.3-.6-.7-.9-1.1-.3-.4-.5-.8-.6-1.2-.2-.4-.3-.9-.4-1.3-.1-.4-.1-.9-.1-1.4 0-.5 0-.9.1-1.4.1-.5.2-.9.4-1.3l.6-1.2c.3-.4.5-.7.9-1.1.3-.3.7-.6 1.1-.9.4-.3.8-.5 1.2-.6.4-.2.9-.3 1.3-.4.9-.2 1.8-.2 2.7 0 .5.1.9.2 1.3.4l1.2.6c.4.3.7.6 1.1.9 1.3 1.3 2.1 3.1 2.1 4.9 0 .4 0 .9-.1 1.4-.1.4-.2.9-.4 1.3l-.6 1.2c-.3.4-.5.7-.9 1.1-.3.3-.7.6-1.1.9-.4.3-.8.5-1.2.6-.4.4-.8.5-1.3.6zm67.2 61.7l-53.5 53.5c-1.4 1.4-3.1 2.1-4.9 2.1-1.8 0-3.6-.7-5-2.1-2.7-2.7-2.7-7.2 0-9.9l53.5-53.5c14.8-14.8 14.8-38.9 0-53.7-2.7-2.7-2.7-7.2 0-9.9s7.2-2.7 9.9 0c20.2 20.2 20.2 53.2 0 73.5z"/>
    <ellipse class="st1" cx="323" cy="202.7" rx="19.3" ry="72.7" transform="rotate(-45.001 323.039 202.71)"/>
    <path class="st0" d="M226 136.9l-69.8-69.8c-14.2-14.2-32.8-21.3-51.4-21.3s-37.2 7.1-51.4 21.3C25 95.5 25 141.6 53.4 170l69.8 69.8c6.3-22.9 32.1-50.4 42.3-60.6 17.9-18 41.9-37.1 60.5-42.3zm-94.6 71.8c-1.4 1.4-3.2 2.1-5 2.1-1.8 0-3.6-.7-5-2.1L68 155.3C47.8 135 47.8 102 68 81.8c2.7-2.7 7.2-2.7 9.9 0s2.7 7.2 0 9.9c-14.8 14.8-14.8 38.9 0 53.7l53.5 53.5c2.7 2.7 2.7 7.1 0 9.8zm12-120.6c-.1.4-.2.9-.4 1.3l-.6 1.2c-.3.4-.5.7-.9 1.1-1.3 1.3-3.1 2.1-5 2.1-.5 0-.9-.1-1.4-.1-.5-.1-.9-.2-1.3-.4l-1.2-.6c-.4-.3-.7-.6-1.1-.9-.3-.3-.6-.7-.9-1.1-.3-.4-.5-.8-.6-1.2-.2-.4-.3-.9-.4-1.3-.1-.5-.1-.9-.1-1.4 0-1.8.8-3.7 2.1-4.9.3-.3.7-.6 1.1-.9.4-.3.8-.5 1.2-.6.4-.2.9-.3 1.3-.4.9-.2 1.8-.2 2.7 0 .5.1.9.2 1.3.4l1.2.6c.4.3.7.6 1.1.9.3.3.6.7.9 1.1.3.4.5.8.6 1.2.2.4.3.9.4 1.3.1.4.1.9.1 1.4.1.3 0 .7-.1 1.2zm3.2 8.7c2.7-2.7 7.2-2.7 9.9 0l38.4 38.4c2.7 2.7 2.7 7.2 0 9.9-1.4 1.4-3.2 2.1-5 2.1-1.8 0-3.6-.7-4.9-2.1l-38.4-38.4c-2.7-2.7-2.7-7.2 0-9.9z"/>
    <ellipse class="st1" cx="189" cy="202.7" rx="72.7" ry="19.3" transform="rotate(-45.001 188.958 202.708)"/>
    <circle class="st1" cx="195.1" cy="309.9" r="27.7"/>
    <circle class="st1" cx="275.7" cy="256.5" r="22.3"/>
    <circle class="st1" cx="233.9" cy="431.7" r="34.5"/>
    <path class="st1" d="M307.9 305.7c-18.5 0-33.5 15-33.5 33.5 0 16.1 11.4 29.5 26.5 32.8v-21.1c0-3.9 3.1-7 7-7s7 3.1 7 7V372c15.1-3.2 26.5-16.7 26.5-32.8 0-18.5-15-33.5-33.5-33.5zm6.9 27.2c-.1.4-.2.9-.4 1.3l-.6 1.2c-.3.4-.5.7-.9 1.1-1.3 1.3-3.1 2-5 2s-3.7-.7-5-2c-.3-.3-.6-.7-.9-1.1s-.5-.8-.7-1.2c-.2-.4-.3-.9-.4-1.3-.1-.5-.1-.9-.1-1.4 0-1.8.8-3.7 2-5 1.6-1.6 4-2.4 6.3-1.9.4.1.9.2 1.3.4l1.2.6c.4.3.7.5 1.1.9 1.3 1.3 2 3.1 2 5 .2.5.2 1 .1 1.4z"/>
</svg>
